<svg width="160" height="46" viewBox="0 0 160 46" fill="none" xmlns="http://www.w3.org/2000/svg"><rect x="30.438" y=".438" width="99.123" height="27.487" rx="13.744" fill="#000"/><rect x="30.438" y=".438" width="99.123" height="27.487" rx="13.744" stroke="#000" stroke-width=".877"/><path d="M59.803 18.182v-.804c-.314.522-1.075.924-2.096.924-2.02 0-3.519-1.63-3.519-3.986 0-2.368 1.51-4.052 3.606-4.052 1.597 0 2.672.859 3.15 2.238l-1.325.445c-.228-.923-.88-1.455-1.814-1.455-1.314 0-2.226 1.118-2.226 2.802 0 1.683.912 2.813 2.248 2.813 1.13 0 1.868-.804 1.911-1.912h-2.052V13.98h3.388v4.203h-1.27zm4.818.12c-1.63 0-2.77-1.206-2.77-2.965 0-1.673 1.13-2.966 2.716-2.966 1.65 0 2.53 1.25 2.53 2.813v.435h-3.996c.097.977.684 1.575 1.52 1.575.64 0 1.151-.326 1.325-.912l1.119.423c-.402 1-1.304 1.597-2.444 1.597zm-.065-4.833c-.673 0-1.195.401-1.39 1.173h2.617c-.01-.63-.402-1.173-1.227-1.173zm3.422 3.28v-3.161h-.793V12.48h.793v-1.672h1.281v1.672h1.195v1.108h-1.195v2.954c0 .51.293.565.76.565.218 0 .337-.011.532-.033v1.097a5.28 5.28 0 01-.901.076c-1.086 0-1.672-.336-1.672-1.498zm4.615-.087l1.064-.88c.543.847 1.358 1.336 2.248 1.336.88 0 1.543-.402 1.543-1.151 0-.793-.815-.902-1.977-1.184-1.173-.283-2.433-.63-2.433-2.15 0-1.445 1.238-2.368 2.813-2.368 1.336 0 2.379.63 2.9 1.444l-1.021.88c-.434-.674-1.01-1.14-1.922-1.14-.837 0-1.412.423-1.412 1.042 0 .684.597.825 1.65 1.064 1.26.283 2.77.576 2.77 2.27 0 1.532-1.347 2.477-2.954 2.477-1.336 0-2.661-.641-3.27-1.64zm9.184 1.64c-1.597 0-2.509-1.347-2.509-2.965 0-1.619.912-2.966 2.509-2.966.738 0 1.281.294 1.64.717v-.608h1.303v7.657h-1.303v-2.552c-.359.423-.902.717-1.64.717zm1.672-3.128c0-1.076-.608-1.662-1.412-1.662-.944 0-1.455.739-1.455 1.825 0 1.086.51 1.824 1.456 1.824.803 0 1.411-.597 1.411-1.65v-.337zm7.166-2.694v5.702H89.31v-.608c-.326.38-.814.728-1.553.728-1.194 0-1.933-.815-1.933-2.042v-3.78h1.303v3.497c0 .695.304 1.14 1.01 1.14.587 0 1.173-.434 1.173-1.248V12.48h1.304zm2.666 5.8c-1.086 0-1.923-.663-1.923-1.684 0-1.086.815-1.563 1.912-1.792l1.575-.325v-.098c0-.543-.283-.88-.978-.88-.619 0-.945.283-1.097.836l-1.227-.282c.282-.945 1.119-1.684 2.378-1.684 1.369 0 2.194.652 2.194 1.966v2.455c0 .326.142.423.5.38v1.01c-.945.109-1.444-.076-1.64-.543-.358.402-.956.64-1.694.64zm1.564-2.107v-.695l-1.228.26c-.553.12-.966.294-.966.804 0 .445.326.695.825.695.695 0 1.369-.369 1.369-1.064zm5.715-3.704v1.304a3.307 3.307 0 00-.478-.033c-.825 0-1.455.532-1.455 1.444v2.998h-1.303V12.48h1.303v.847c.25-.532.836-.88 1.564-.88.152 0 .271.011.369.022zm2.818 5.833c-1.629 0-2.769-1.206-2.769-2.965 0-1.673 1.129-2.966 2.715-2.966 1.651 0 2.531 1.25 2.531 2.813v.435h-3.997c.098.977.684 1.575 1.52 1.575.641 0 1.152-.326 1.325-.912l1.119.423c-.402 1-1.303 1.597-2.444 1.597zm-.065-4.833c-.673 0-1.195.401-1.39 1.173h2.617c-.01-.63-.401-1.173-1.227-1.173z" fill="#fff"/></svg>