<svg width="160" height="34" viewBox="0 0 160 34" fill="none" xmlns="http://www.w3.org/2000/svg"><path d="M66.29 22.49v9.181a2.304 2.304 0 01-2.304 2.305h-9.181A2.304 2.304 0 0152.5 31.67V22.49a2.305 2.305 0 012.304-2.304h9.182a2.304 2.304 0 012.304 2.304zm-2.508.931a.728.728 0 00-.727-.727h-7.32a.728.728 0 00-.727.727v7.32c0 .402.325.728.727.728h7.32a.728.728 0 00.728-.727v-7.32zm-6.268 2.199c0-.232.187-.42.417-.42h2.927c.23 0 .417.188.417.42v2.921c0 .232-.186.42-.417.42H57.93a.418.418 0 01-.417-.42V25.62zm18.382 1.336a3.802 3.802 0 00-.702-.326c-.264-.096-.726-.218-1.374-.362-.35-.07-.608-.13-.767-.179l-.08-.024c-.12-.036-.224-.067-.303-.107-.26-.104-.42-.212-.507-.341-.102-.126-.15-.285-.15-.501 0-.327.142-.599.423-.81.28-.21.651-.319 1.115-.319.431 0 .828.104 1.177.309.299.182.578.45.83.799a.187.187 0 00.272.032l.885-.763a.188.188 0 00.03-.251 3.392 3.392 0 00-1.26-1.05 4.178 4.178 0 00-1.886-.436c-.41 0-.81.057-1.186.17-.402.129-.72.292-.969.495-.324.24-.566.527-.74.875a2.447 2.447 0 00-.243 1.105c0 .41.067.73.206.997.148.295.353.523.645.718.206.142.439.26.69.351.239.098.6.203 1.167.337.066.022.192.058.423.109.233.055.372.086.48.108a15.012 15.012 0 01.515.168c.124.044.242.102.343.165a.965.965 0 01.305.316.809.809 0 01.104.42c0 .387-.155.696-.458.918-.297.217-.72.332-1.224.332s-.95-.125-1.37-.381a3.152 3.152 0 01-1.001-.94.185.185 0 00-.271-.038l-.932.77a.188.188 0 00-.036.247c.325.496.79.89 1.423 1.206a4.667 4.667 0 002.14.496l.011-.002c.43 0 .842-.062 1.224-.18.384-.12.72-.287 1.03-.51.325-.253.582-.56.763-.91.175-.362.267-.765.267-1.165s-.085-.78-.255-1.082a2.067 2.067 0 00-.754-.766zm7.576-1.878h-1.12a.186.186 0 00-.186.186v.52c-.34-.379-.918-.826-1.79-.826a2.76 2.76 0 00-1.189.267c-.357.166-.664.42-.91.752a3.38 3.38 0 00-.52 1.042c-.123.392-.182.8-.182 1.245 0 .446.06.873.181 1.258.127.407.302.754.52 1.03.242.337.549.595.912.764a2.75 2.75 0 001.188.255h.025v-.002c.383-.002.713-.07 1.007-.206.302-.127.551-.305.759-.543v2.994c0 .103.083.186.186.186h1.12a.186.186 0 00.187-.186v-8.55a.186.186 0 00-.187-.186zm-1.27 3.007v.372c0 .544-.143.988-.426 1.318-.275.321-.65.484-1.112.484-.494 0-.888-.179-1.17-.531-.279-.35-.415-.828-.415-1.463 0-.635.136-1.114.415-1.463.282-.352.676-.531 1.17-.531.462 0 .826.162 1.112.496.283.33.427.774.427 1.318zm7.714-3.007H88.79a.187.187 0 00-.18.186v3.59c0 .396-.123.725-.366.98-.245.257-.533.376-.907.376-.373 0-.634-.103-.823-.315-.181-.206-.27-.507-.27-.921v-3.71a.186.186 0 00-.186-.186h-1.12a.186.186 0 00-.186.186v4.022c0 .702.191 1.247.584 1.664.393.418.91.621 1.581.621.827 0 1.307-.391 1.694-.807v.489c0 .102.084.186.186.186h1.12a.186.186 0 00.187-.186v-5.989a.187.187 0 00-.187-.186zm6.821 5.203c-.125 0-.208-.026-.267-.085-.065-.066-.1-.173-.1-.32v-2.717c0-.698-.212-1.247-.633-1.63-.428-.379-1.04-.571-1.82-.571-.656 0-1.227.171-1.697.51-.417.298-.72.701-.902 1.197a.185.185 0 00.133.244l1.04.24a.187.187 0 00.218-.122c.084-.239.212-.428.369-.546.197-.148.459-.223.778-.223.353 0 .612.08.789.245.178.166.268.403.268.703v.108l-1.723.345c-1.397.26-2.136.953-2.136 2 0 .508.196.976.551 1.317.39.373.944.57 1.602.57.971 0 1.527-.368 1.827-.69.164.36.786.76 1.727.58a.168.168 0 00.14-.163v-.827a.164.164 0 00-.164-.165zm-1.825-1.83v.782a.918.918 0 01-.26.65c-.3.3-.706.454-1.205.46h-.025c-.29 0-.5-.064-.658-.2-.155-.121-.23-.3-.23-.545 0-.229.073-.399.231-.534.147-.125.415-.233.819-.331l1.328-.282zm6.376-3.388l-.014-.002c-.046-.006-.141-.02-.255-.02h-.061l.001.002a2.193 2.193 0 00-1.01.268 1.673 1.673 0 00-.636.63v-.677a.186.186 0 00-.186-.186h-1.12a.186.186 0 00-.186.186v5.989c0 .102.083.186.186.186h1.12a.186.186 0 00.186-.186v-3.157c0-.482.143-.854.438-1.137.286-.285.683-.437 1.148-.437.164 0 .29.011.338.015h.012a.187.187 0 00.203-.184v-1.11c0-.096-.066-.168-.165-.18h.001zm5.45.77c-.508-.58-1.202-.875-2.063-.875-.439 0-.851.086-1.224.255-.369.161-.703.41-.994.739a3.22 3.22 0 00-.606 1.054c-.137.376-.206.8-.206 1.258 0 .498.067.926.206 1.307.147.405.355.756.617 1.042.267.302.596.536 1.006.716.374.163.786.242 1.261.242.628 0 1.171-.155 1.661-.473a2.76 2.76 0 00.996-1.148.19.19 0 00.004-.15.19.19 0 00-.108-.105l-.925-.35a.19.19 0 00-.239.105 1.322 1.322 0 01-.478.585c-.257.175-.555.26-.911.26-.46 0-.842-.155-1.136-.46-.295-.307-.47-.722-.52-1.233h4.235a.186.186 0 00.186-.186v-.32c0-.924-.256-1.685-.762-2.264zm-3.046.72c.265-.217.601-.331.971-.331.408 0 .734.118.968.353.228.23.348.522.364.895h-2.84c.095-.378.281-.695.537-.917z" fill="#000"/></svg>