<svg width="160" height="175" viewBox="0 0 160 175" fill="none" xmlns="http://www.w3.org/2000/svg"><path d="M68.514 54.862c-6.025 0-9.95-3.7-9.95-9.5 0-5.5 3.687-9.15 9.575-9.15 2.662 0 4.025.725 4.837.725.425 0 .538-.212.625-.662h.438l.825 6.563-.575.1C73.1 39.237 71 37.15 67.876 37.15c-3.8 0-6.4 3.05-6.4 7.888 0 5.325 2.875 8.812 7.113 8.812 1.562 0 2.937-.413 4.075-1.263v-3.25c0-1.9-.15-2.375-2.713-2.962v-.337h6.663v.337c-1.5.487-1.538 1.063-1.538 2.962v3.825c-1.75 1-3.975 1.7-6.562 1.7zm15.046 0c-3.187 0-5.862-2.312-5.862-6.825 0-3.987 2.112-6.7 5.762-6.7 3.088 0 4.888 1.925 4.875 5.413h-8.412c-.063 3.362 1.262 6.163 4.387 6.163 2.1 0 3.388-1.25 4.013-3.588l.425.075c-.325 3.675-2.375 5.462-5.188 5.462zm-3.562-8.974h5.6c.187-2.363-.688-3.675-2.5-3.675-1.85 0-3.013 1.325-3.1 3.675zM94.3 54.862c-1.825 0-2.675-1.037-2.675-3.187v-8.962h-2.138v-.388c1.95-.8 3.063-1.925 3.875-4.6h.55V41.7h3.8v1.012h-3.8v8.625c0 1.313.4 1.788 1.263 1.788.712 0 1.562-.25 2.437-1.788l.4.263c-.85 2.262-1.937 3.262-3.712 3.262zm-49.88 28c-2.226 0-2.675-.637-3.463-.637-.313 0-.45.175-.55.625h-.35l-.225-4.688.45-.05c1.138 2.75 2.763 3.925 4.488 3.925 1.212 0 1.987-.662 1.987-1.825 0-1.362-.625-2.062-2.188-2.837l-1.45-.713c-1.987-.987-3.124-2.137-3.124-3.887 0-2.038 1.625-3.438 4.175-3.438 1.674 0 2.424.525 3.05.525.287 0 .4-.112.55-.524h.362l.438 4.55-.476.087c-.837-2.212-2.275-3.787-4.137-3.787-1.212 0-1.9.687-1.9 1.75 0 1.087.375 1.75 2.137 2.637l1.325.662c2.55 1.276 3.425 2.263 3.425 3.963 0 1.912-1.437 3.662-4.525 3.662zm10.296 0c-1.825 0-2.675-1.037-2.675-3.187v-8.962h-2.137v-.388c1.95-.8 3.062-1.925 3.875-4.6h.55V69.7h3.8v1.013h-3.8v8.625c0 1.312.4 1.787 1.262 1.787.713 0 1.563-.25 2.438-1.787l.4.262c-.85 2.263-1.938 3.263-3.713 3.263zm14.096-.087c-1.225 0-1.725-.675-1.775-1.888l-2.125 1.288c-.725.463-1.437.688-2.325.688-2.025 0-3.212-1.475-3.212-3.288 0-2.038 1.525-3.475 7.65-4.963v-1.2c0-1.85-.4-3.162-2.113-3.162-1.237 0-2.162.55-2.7 2.175-.425 1.237-.912 1.538-1.612 1.538-.575 0-.988-.375-.988-1.1 0-1.438 1.75-3.525 5.3-3.525 3.238 0 4.375 1.475 4.375 4.5v6.612c0 .45.188.65.613.65.462 0 .837-.313 1.337-1.075l.388.175c-.463 1.787-1.438 2.575-2.813 2.575zm-6.975-3.7c0 1.313.563 2.188 1.825 2.188.825 0 1.513-.238 2.575-.838l.788-.45V75.5c-4.4 1.225-5.188 2.213-5.188 3.575zm9.578 3.063c1.738-.326 1.838-.713 1.838-2.138v-7.088c0-1.412-.3-1.787-1.838-1.562v-.487c1.25-.388 2.513-.888 3.613-1.55h.212c.15.887.225 1.7.25 2.724.788-2.175 2.15-2.7 3.313-2.7 1.225 0 1.9.575 1.9 1.413 0 .725-.525 1.263-1.313 1.263-.787 0-1.15-.576-2.012-.576-1.15 0-1.85 1.088-1.85 3.826V80c0 1.425.15 1.813 2.362 2.138v.362h-6.475v-.362zm14.913.724c-1.825 0-2.675-1.037-2.675-3.187v-8.962h-2.137v-.388c1.95-.8 3.063-1.925 3.875-4.6h.55V69.7h3.8v1.013h-3.8v8.625c0 1.312.4 1.787 1.263 1.787.712 0 1.562-.25 2.437-1.787l.4.262c-.85 2.263-1.938 3.263-3.712 3.263zm10.246 0c-3.187 0-5.862-2.312-5.862-6.825 0-3.987 2.112-6.7 5.762-6.7 3.088 0 4.888 1.925 4.875 5.413h-8.412c-.063 3.362 1.262 6.162 4.387 6.162 2.1 0 3.388-1.25 4.013-3.587l.425.075c-.325 3.675-2.375 5.462-5.188 5.462zm-3.562-8.974h5.6c.187-2.363-.688-3.675-2.5-3.675-1.85 0-3.013 1.325-3.1 3.675zm15.264 8.974c-3.162 0-5.1-2.4-5.1-6.287 0-4.45 2.55-7.188 6.6-7.188.888 0 1.8.138 2.6.425v-2.55c0-1.237-.2-1.8-2.325-1.525v-.487c1.8-.425 3.138-.95 4.363-1.587h.237v16.162c0 1.25.25 1.425 1.963 1.425v.325c-1.45.337-2.575.763-3.675 1.362h-.15a14.699 14.699 0 01-.363-2.612c-1.012 1.75-2.337 2.537-4.15 2.537zm-2.6-7.137c0 3.463 1.188 5.338 3.6 5.338 1.113 0 2.15-.4 3.1-1.326v-7.424c-.412-1.363-1.425-2.013-2.912-2.013-2.463 0-3.788 1.737-3.788 5.425zm-80.81 24.387c-.6-1.437-.85-1.825-2.137-2.062v-.35h6.325v.337c-1.7.188-2.15.8-1.587 2.325l2.825 7.5 2.4-7.525c.5-1.562.137-2.075-1.6-2.287v-.35h5.187v.35c-1.3.237-1.637.8-2.175 2.225l-4 10.488h-.825l-3.212-7.751-3.313 7.751h-.812l-3.863-10.651c-.537-1.462-.825-1.825-2.3-2.062v-.35h5.963v.35c-1.238.175-1.625.75-1.088 2.312l2.45 7.25 2.475-5.787-.712-1.713zm11.206 10.025c1.775-.325 1.875-.712 1.875-2.137v-7.1c0-1.413-.3-1.788-1.825-1.563v-.512c1.25-.362 2.8-.862 3.9-1.525h.2V108c0 1.425.087 1.812 1.887 2.137v.363h-6.037v-.363zm2.937-15.025c-.937 0-1.675-.7-1.675-1.6 0-.862.738-1.562 1.675-1.562.925 0 1.65.7 1.65 1.563 0 .912-.75 1.6-1.65 1.6zm8.108 15.751c-1.825 0-2.675-1.038-2.675-3.188v-8.962h-2.138v-.388c1.95-.8 3.063-1.925 3.875-4.6h.55V97.7h3.8v1.013h-3.8v8.624c0 1.313.4 1.788 1.263 1.788.712 0 1.562-.25 2.437-1.788l.4.263c-.85 2.262-1.937 3.263-3.712 3.263zm3.816-.701c1.75-.337 1.825-.725 1.825-2.137V95.312c0-1.25-.175-1.762-2.287-1.474v-.513c1.762-.45 3.137-1 4.412-1.663h.163v7.963c1.262-1.525 2.687-2.287 4.362-2.287 2.388 0 3.538 1.587 3.538 4.174v6.513c0 1.412.125 1.8 1.85 2.137v.338h-6.038v-.338c1.838-.337 1.913-.725 1.913-2.137v-6.338c0-1.825-.65-2.674-2.225-2.674-1.175 0-2.413.524-3.4 1.599v7.413c0 1.412.137 1.8 1.95 2.137v.338h-6.063v-.338zm25.14.688c-3.076 0-3.788-.85-4.7-.85-.413 0-.626.212-.726.775h-.425l-.2-6.038.513-.025c1.487 4 3.475 5.25 5.862 5.25 1.988 0 3.375-1.162 3.375-2.987 0-1.925-.85-2.888-3.55-4.213l-1.587-.775c-3.175-1.55-4.4-3.05-4.4-5.362 0-2.675 2.125-4.425 5.35-4.425 2.612 0 3.662.85 4.35.85.362 0 .537-.2.662-.775h.463l.525 6.012-.525.075c-1.763-3.762-3.263-5.274-5.625-5.274-1.763 0-2.925.962-2.925 2.675 0 1.9 1.025 2.724 3.387 3.9l1.65.837c3.125 1.55 4.525 2.9 4.525 5.45 0 3-2.212 4.9-6 4.9zm13.075-.012c-3.388 0-5.15-2.638-5.15-6.426 0-4.237 2.7-7.05 6.687-7.05 1.488 0 2.625.25 3.75.838l1.038-.838h.212v16.051c0 1.412.088 1.787 1.675 2.112v.375h-5.875l-.012-.375c1.812-.325 1.937-.7 1.937-2.112v-4.988c-.987 1.575-2.387 2.413-4.262 2.413zm-2.65-7.188c0 3.8 1.45 5.387 3.675 5.387 1.15 0 2.225-.374 3.237-1.325v-6.4c-.012-1.937-1.125-3.1-3-3.1-2.525 0-3.912 1.8-3.912 5.438zm15.71 7.213c-2.325 0-3.5-1.576-3.5-4.063v-6.3c0-1.425-.2-1.813-1.8-1.912v-.425c1.35-.138 2.737-.338 3.85-.626h.225v9.013c0 1.575.713 2.687 2.263 2.687 1.225 0 2.45-.662 3.287-1.612V100.5c0-1.475-.237-1.825-2.162-1.888v-.424c1.437-.126 3-.338 4.225-.65h.212v10.112c0 1.288.288 1.425 2.038 1.425v.512c-1.475.3-2.763.725-3.875 1.325h-.038c-.187-.9-.325-1.737-.35-2.462-1.162 1.487-2.487 2.413-4.375 2.413zm18.682-.088c-1.225 0-1.725-.675-1.775-1.888l-2.125 1.288c-.725.463-1.437.688-2.325.688-2.025 0-3.212-1.476-3.212-3.288 0-2.038 1.525-3.475 7.65-4.963v-1.2c0-1.85-.4-3.162-2.113-3.162-1.237 0-2.162.55-2.7 2.175-.425 1.237-.912 1.537-1.612 1.537-.575 0-.988-.375-.988-1.1 0-1.437 1.75-3.524 5.3-3.524 3.238 0 4.375 1.475 4.375 4.499v6.613c0 .45.188.65.613.65.462 0 .837-.313 1.337-1.075l.388.175c-.463 1.787-1.438 2.575-2.813 2.575zm-6.975-3.7c0 1.312.563 2.187 1.825 2.187.825 0 1.513-.237 2.575-.837l.788-.45V103.5c-4.4 1.225-5.188 2.212-5.188 3.575zm9.579 3.062c1.737-.325 1.837-.712 1.837-2.137v-7.088c0-1.412-.3-1.787-1.837-1.562v-.487c1.25-.388 2.512-.888 3.612-1.55h.213c.15.887.225 1.7.25 2.724.787-2.175 2.15-2.7 3.312-2.7 1.225 0 1.9.575 1.9 1.413 0 .725-.525 1.262-1.312 1.262-.788 0-1.15-.575-2.013-.575-1.15 0-1.85 1.088-1.85 3.825V108c0 1.425.15 1.812 2.363 2.137v.363h-6.475v-.363zm15.337.726c-3.187 0-5.862-2.313-5.862-6.826 0-3.987 2.112-6.7 5.762-6.7 3.088 0 4.888 1.925 4.875 5.413h-8.412c-.063 3.362 1.262 6.162 4.387 6.162 2.1 0 3.388-1.25 4.013-3.587l.425.075c-.325 3.675-2.375 5.463-5.188 5.463zm-3.562-8.976h5.6c.187-2.362-.688-3.674-2.5-3.674-1.85 0-3.013 1.325-3.1 3.674zm-82.897 36.976c-1.825 0-2.675-1.038-2.675-3.188v-8.963H47.56v-.387c1.95-.8 3.063-1.925 3.875-4.6h.55v3.975h3.8v1.012h-3.8v8.625c0 1.313.4 1.788 1.263 1.788.712 0 1.562-.25 2.437-1.788l.4.263c-.85 2.262-1.938 3.263-3.712 3.263zm10.509 0c-3.9 0-6.125-2.651-6.125-6.788 0-4.138 2.275-6.738 6.187-6.738 3.888 0 6.113 2.65 6.113 6.788 0 4.137-2.263 6.738-6.175 6.738zm.087-.976c2.275 0 3.588-1.937 3.588-5.5 0-3.95-1.375-6.075-3.713-6.075-2.275 0-3.575 1.938-3.575 5.5 0 3.95 1.375 6.075 3.7 6.075zm12.67.976c-3.162 0-5.1-2.401-5.1-6.288 0-4.45 2.55-7.188 6.6-7.188.888 0 1.8.138 2.6.425v-2.55c0-1.237-.2-1.8-2.324-1.525v-.487c1.8-.425 3.137-.95 4.362-1.588h.238v16.163c0 1.25.25 1.425 1.962 1.425v.325c-1.45.337-2.575.762-3.675 1.363h-.15a14.707 14.707 0 01-.362-2.613c-1.013 1.75-2.338 2.538-4.15 2.538zm-2.6-7.138c0 3.462 1.188 5.337 3.6 5.337 1.113 0 2.15-.399 3.1-1.325v-7.425c-.412-1.362-1.424-2.012-2.912-2.012-2.462 0-3.787 1.737-3.787 5.425zm21.252 7.05c-1.225 0-1.725-.675-1.775-1.888l-2.125 1.288c-.725.463-1.438.688-2.325.688-2.025 0-3.213-1.476-3.213-3.288 0-2.038 1.525-3.475 7.65-4.963v-1.2c0-1.85-.4-3.162-2.112-3.162-1.238 0-2.163.55-2.7 2.175-.425 1.237-.913 1.537-1.613 1.537-.575 0-.987-.375-.987-1.1 0-1.437 1.75-3.525 5.3-3.525 3.237 0 4.375 1.475 4.375 4.5v6.613c0 .45.187.65.612.65.463 0 .838-.313 1.338-1.075l.387.175c-.462 1.787-1.437 2.575-2.812 2.575zm-6.975-3.7c0 1.312.562 2.187 1.825 2.187.825 0 1.512-.237 2.575-.837l.787-.45V131.5c-4.4 1.225-5.187 2.212-5.187 3.575zm10.017 9.175c-1.125 0-1.788-.462-1.788-1.312 0-.775.55-1.238 1.438-1.238.7 0 1.137.225 1.737.225 1.275 0 2.038-.937 3.138-3.438l-4.375-10.4c-.588-1.375-.975-1.837-2.225-2.075v-.312h6.312v.312c-1.775.175-1.987 1-1.4 2.525l2.888 7.225 2.912-7.387c.675-1.688-.112-2.225-2.025-2.375v-.3h5.613v.312c-1.125.2-1.45.575-2.15 2.188l-4.463 10.275c-.9 2.063-2.55 5.775-5.612 5.775zm12.41-5.4a1.72 1.72 0 01-1.712-1.7c0-.925.775-1.7 1.712-1.7a1.7 1.7 0 011.688 1.7 1.7 1.7 0 01-1.688 1.7z" fill="#121212"/></svg>