<svg width="160" height="175" viewBox="0 0 160 175" fill="none" xmlns="http://www.w3.org/2000/svg"><path d="M63.986 54.85c-3.075 0-3.788-.85-4.7-.85-.413 0-.625.212-.725.775h-.425l-.2-6.038.512-.025c1.488 4 3.475 5.25 5.863 5.25 1.987 0 3.375-1.162 3.375-2.987 0-1.925-.85-2.888-3.55-4.212l-1.588-.776c-3.175-1.55-4.4-3.05-4.4-5.362 0-2.675 2.125-4.425 5.35-4.425 2.613 0 3.663.85 4.35.85.363 0 .538-.2.663-.775h.462l.525 6.013-.525.075c-1.762-3.763-3.262-5.276-5.625-5.276-1.762 0-2.925.963-2.925 2.675 0 1.9 1.025 2.725 3.388 3.9l1.65.838c3.125 1.55 4.525 2.9 4.525 5.45 0 3-2.213 4.9-6 4.9zm12.063.012c-1.825 0-2.675-1.037-2.675-3.187v-8.962h-2.138v-.388c1.95-.8 3.063-1.925 3.875-4.6h.55V41.7h3.8v1.012h-3.8v8.625c0 1.313.4 1.788 1.263 1.788.712 0 1.562-.25 2.437-1.788l.4.263c-.85 2.262-1.937 3.262-3.712 3.262zm3.983-.724c1.775-.325 1.875-.713 1.875-2.138v-7.1c0-1.413-.3-1.788-1.825-1.563v-.512c1.25-.363 2.8-.863 3.9-1.525h.2V52c0 1.425.088 1.813 1.888 2.138v.362h-6.038v-.362zm2.938-15.026c-.938 0-1.675-.7-1.675-1.6 0-.862.737-1.562 1.675-1.562.925 0 1.65.7 1.65 1.563 0 .912-.75 1.6-1.65 1.6zm3.42 15.026c1.775-.325 1.875-.713 1.875-2.138V39.312c0-1.25-.175-1.762-2.288-1.474v-.513c1.763-.45 3.138-1 4.413-1.663h.162V52c0 1.425.088 1.813 1.875 2.138v.362H86.39v-.362zm6.354 0c1.775-.325 1.875-.713 1.875-2.138V39.312c0-1.25-.175-1.762-2.287-1.474v-.513c1.762-.45 3.137-1 4.412-1.663h.162V52c0 1.425.088 1.813 1.875 2.138v.362h-6.037v-.362zM40.473 82.862c-1.825 0-2.675-1.037-2.675-3.187v-8.962H35.66v-.388c1.95-.8 3.063-1.925 3.875-4.6h.55V69.7h3.8v1.013h-3.8v8.625c0 1.312.4 1.787 1.263 1.787.712 0 1.562-.25 2.437-1.787l.4.262c-.85 2.263-1.937 3.263-3.712 3.263zm3.816-.7c1.75-.337 1.825-.725 1.825-2.137V67.312c0-1.25-.175-1.762-2.287-1.474v-.513c1.762-.45 3.137-1 4.412-1.663h.163v7.963c1.262-1.525 2.687-2.287 4.362-2.287 2.388 0 3.538 1.587 3.538 4.175v6.512c0 1.412.125 1.8 1.85 2.137v.338h-6.038v-.338c1.838-.337 1.913-.725 1.913-2.137v-6.338c0-1.825-.65-2.674-2.225-2.674-1.175 0-2.413.524-3.4 1.6v7.412c0 1.412.137 1.8 1.95 2.137v.338h-6.063v-.338zm13.724-.025c1.775-.325 1.875-.712 1.875-2.137v-7.1c0-1.413-.3-1.788-1.825-1.563v-.512c1.25-.362 2.8-.862 3.9-1.525h.2V80c0 1.425.087 1.813 1.887 2.138v.362h-6.037v-.362zm2.937-15.025c-.937 0-1.675-.7-1.675-1.6 0-.862.738-1.562 1.675-1.562.925 0 1.65.7 1.65 1.563 0 .912-.75 1.6-1.65 1.6zm3.358 15.05c1.75-.337 1.837-.725 1.837-2.137v-7.1c0-1.412-.3-1.8-1.837-1.575v-.5c1.262-.375 2.524-.875 3.637-1.537h.2c.112.762.2 1.512.225 2.374 1.275-1.562 2.712-2.35 4.412-2.35 2.388 0 3.538 1.588 3.538 4.175v6.513c0 1.412.125 1.8 1.85 2.137v.338h-6.038v-.338c1.85-.337 1.913-.725 1.913-2.137v-6.338c0-1.825-.65-2.674-2.225-2.674-1.188 0-2.425.537-3.4 1.612v7.4c0 1.412.138 1.8 1.95 2.137v.338h-6.063v-.338zm13.876-.025c1.662-.35 1.837-.725 1.837-2.162V67.313c0-1.25-.175-1.763-2.287-1.475v-.513c1.762-.45 3.137-1 4.412-1.663h.163v11.9l3.25-3.187c.825-.8 1.112-1.15 1.112-1.563 0-.437-.25-.612-1.325-.75V69.7h6.038v.362c-1.388.2-2.2.55-3.613 1.838l-3.137 2.887 4.262 5.163c1.325 1.612 2.075 2.05 3.163 2.188v.362H85.87v-.362c1.138-.126 1.275-.65.45-1.663l-4.012-4.887v4.387c0 1.438.162 1.813 1.837 2.163v.362h-5.962v-.362zm13.37 0c1.775-.325 1.875-.712 1.875-2.137v-7.1c0-1.413-.3-1.788-1.825-1.563v-.512c1.25-.362 2.8-.862 3.9-1.525h.2V80c0 1.425.087 1.813 1.887 2.138v.362h-6.037v-.362zm2.937-15.025c-.937 0-1.675-.7-1.675-1.6 0-.862.738-1.562 1.675-1.562.925 0 1.65.7 1.65 1.563 0 .912-.75 1.6-1.65 1.6zm3.358 15.05c1.75-.337 1.837-.725 1.837-2.137v-7.1c0-1.412-.3-1.8-1.838-1.575v-.5c1.263-.375 2.526-.875 3.638-1.537h.2c.113.762.2 1.512.225 2.374 1.275-1.562 2.713-2.35 4.413-2.35 2.387 0 3.537 1.588 3.537 4.175v6.513c0 1.412.125 1.8 1.85 2.137v.338h-6.037v-.338c1.85-.337 1.912-.725 1.912-2.137v-6.338c0-1.825-.65-2.674-2.225-2.674-1.187 0-2.425.537-3.4 1.612v7.4c0 1.412.138 1.8 1.95 2.137v.338h-6.063v-.338zm19.038 6.138c-3.137 0-5.287-1.138-5.287-2.712 0-.7.362-1.263 1.062-1.713l1.988-1.425c-1.1-.213-1.838-.775-1.838-1.688 0-.7.4-1.3 1.55-2.087l.913-.65c-1.825-.638-2.863-2.088-2.863-4.113 0-2.737 2.138-4.575 5.35-4.575 1.188 0 2.175.288 2.963.738a62.818 62.818 0 003.987-.625c.05.513.025 1.05-.187 1.5l-2.75.112c.675.6 1.1 1.613 1.1 2.788 0 2.688-2.175 4.525-5.35 4.525-.538 0-1.038-.05-1.488-.138-.687.5-1.075 1.013-1.075 1.476 0 .712.8.912 1.613.962l4.225.2c2.5.125 3.575 1.037 3.575 2.525 0 2.8-3.425 4.9-7.488 4.9zm.763-10.775c2.062 0 2.737-1.563 2.737-3.313 0-2.287-.937-4-2.762-4-1.863 0-2.713 1.238-2.713 3.363 0 2.325.925 3.95 2.738 3.95zm-3.975 7.5c0 1.162 1.312 1.962 4.162 1.962 3.038 0 4.938-1.15 4.938-2.662 0-.925-.588-1.388-2.775-1.513l-4.363-.262-.487.388c-.725.562-1.475 1.287-1.475 2.087zm-54.342 25.75c-1.225 0-1.725-.675-1.775-1.888l-2.125 1.288c-.725.463-1.438.688-2.325.688-2.025 0-3.213-1.476-3.213-3.288 0-2.038 1.525-3.475 7.65-4.963v-1.2c0-1.85-.4-3.162-2.112-3.162-1.238 0-2.163.55-2.7 2.175-.425 1.237-.913 1.537-1.613 1.537-.575 0-.987-.375-.987-1.1 0-1.437 1.75-3.524 5.3-3.524 3.237 0 4.375 1.475 4.375 4.499v6.613c0 .45.187.65.612.65.463 0 .838-.313 1.338-1.075l.387.175c-.462 1.787-1.437 2.575-2.812 2.575zm-6.975-3.7c0 1.312.562 2.187 1.825 2.187.825 0 1.512-.237 2.575-.837l.787-.45V103.5c-4.4 1.225-5.187 2.212-5.187 3.575zm15.915 3.788c-1.812 0-3.625-.501-4.912-1.501V95.287c0-1.237-.188-1.787-2.375-1.475v-.487c1.825-.475 3.15-1 4.475-1.663h.175v8.063c1.025-1.587 2.562-2.387 4.425-2.387 3.137 0 4.962 2.325 4.962 6.137 0 4.012-2.037 7.388-6.75 7.388zm-2.637-2.2c.687.874 1.65 1.312 2.887 1.312 2.625 0 4.063-1.9 4.063-5.688 0-3.462-1.213-5.15-3.613-5.15-1.225 0-2.362.425-3.337 1.275v8.251zm16.978 2.2c-3.9 0-6.125-2.651-6.125-6.788 0-4.138 2.275-6.737 6.188-6.737 3.887 0 6.112 2.65 6.112 6.787 0 4.137-2.262 6.738-6.175 6.738zm.088-.976c2.275 0 3.587-1.937 3.587-5.5 0-3.95-1.375-6.075-3.712-6.075-2.275 0-3.575 1.938-3.575 5.5 0 3.95 1.375 6.075 3.7 6.075zm11.662.976c-2.325 0-3.5-1.576-3.5-4.063v-6.3c0-1.425-.2-1.813-1.8-1.912v-.425c1.35-.138 2.738-.338 3.85-.626h.225v9.013c0 1.575.713 2.687 2.263 2.687 1.225 0 2.45-.662 3.287-1.612V100.5c0-1.475-.237-1.825-2.162-1.888v-.424c1.437-.126 3-.338 4.225-.65h.212v10.112c0 1.288.288 1.425 2.038 1.425v.512c-1.475.3-2.763.725-3.875 1.325h-.038c-.187-.9-.325-1.737-.35-2.462-1.162 1.487-2.487 2.413-4.375 2.413zm13.382 0c-1.825 0-2.675-1.038-2.675-3.188v-8.962h-2.137v-.388c1.95-.8 3.062-1.925 3.875-4.6h.55V97.7h3.8v1.013h-3.8v8.624c0 1.313.4 1.788 1.262 1.788.713 0 1.563-.25 2.438-1.788l.4.263c-.85 2.262-1.938 3.263-3.713 3.263zM43.499 138.85c-3.075 0-3.788-.85-4.7-.85-.413 0-.625.212-.725.775h-.425l-.2-6.038.513-.025c1.487 4 3.474 5.25 5.862 5.25 1.988 0 3.375-1.162 3.375-2.987 0-1.925-.85-2.888-3.55-4.213l-1.587-.775c-3.175-1.55-4.4-3.05-4.4-5.362 0-2.675 2.124-4.425 5.35-4.425 2.612 0 3.662.85 4.35.85.362 0 .537-.2.662-.775h.462l.526 6.012-.526.075c-1.762-3.762-3.262-5.275-5.624-5.275-1.763 0-2.925.963-2.925 2.675 0 1.9 1.025 2.725 3.387 3.9l1.65.838c3.125 1.55 4.525 2.9 4.525 5.45 0 3-2.213 4.9-6 4.9zm13.075-.012c-3.387 0-5.15-2.638-5.15-6.426 0-4.237 2.7-7.049 6.688-7.049 1.487 0 2.625.249 3.75.837l1.037-.837h.213v16.05c0 1.412.087 1.787 1.675 2.112v.375h-5.875l-.013-.375c1.813-.325 1.938-.7 1.938-2.112v-4.988c-.988 1.575-2.388 2.413-4.263 2.413zm-2.65-7.188c0 3.8 1.45 5.387 3.675 5.387 1.15 0 2.225-.374 3.238-1.325v-6.4c-.013-1.937-1.125-3.1-3-3.1-2.525 0-3.913 1.8-3.913 5.438zm15.71 7.213c-2.324 0-3.5-1.576-3.5-4.063v-6.3c0-1.425-.2-1.813-1.8-1.913v-.425c1.35-.137 2.738-.337 3.85-.625h.226v9.013c0 1.575.712 2.687 2.262 2.687 1.225 0 2.45-.662 3.288-1.612V128.5c0-1.475-.238-1.825-2.163-1.888v-.425c1.438-.125 3-.337 4.225-.65h.213v10.113c0 1.288.287 1.425 2.037 1.425v.512c-1.475.3-2.762.725-3.875 1.325h-.037c-.188-.9-.325-1.737-.35-2.462-1.163 1.487-2.488 2.413-4.375 2.413zm18.683-.088c-1.225 0-1.725-.675-1.775-1.888l-2.125 1.288c-.725.463-1.438.688-2.325.688-2.025 0-3.213-1.476-3.213-3.288 0-2.038 1.525-3.475 7.65-4.963v-1.2c0-1.85-.4-3.162-2.112-3.162-1.237 0-2.163.55-2.7 2.175-.425 1.237-.912 1.537-1.612 1.537-.576 0-.988-.375-.988-1.1 0-1.437 1.75-3.525 5.3-3.525 3.237 0 4.375 1.475 4.375 4.5v6.613c0 .45.188.65.612.65.463 0 .838-.313 1.338-1.075l.387.175c-.462 1.787-1.437 2.575-2.812 2.575zm-6.975-3.7c0 1.312.563 2.187 1.825 2.187.825 0 1.513-.237 2.575-.837l.787-.45V131.5c-4.4 1.225-5.187 2.212-5.187 3.575zm9.578 3.062c1.738-.325 1.838-.712 1.838-2.137v-7.088c0-1.412-.3-1.787-1.838-1.562v-.488c1.25-.387 2.513-.887 3.613-1.55h.212c.15.888.225 1.7.25 2.725.788-2.175 2.15-2.7 3.313-2.7 1.225 0 1.9.575 1.9 1.413 0 .725-.525 1.262-1.313 1.262-.787 0-1.15-.575-2.012-.575-1.15 0-1.85 1.088-1.85 3.825V136c0 1.425.15 1.812 2.362 2.137v.363H90.92v-.363zm15.338.726c-3.187 0-5.862-2.313-5.862-6.826 0-3.987 2.112-6.7 5.762-6.7 3.088 0 4.888 1.925 4.875 5.413h-8.412c-.063 3.362 1.262 6.162 4.387 6.162 2.1 0 3.388-1.25 4.013-3.587l.425.075c-.325 3.675-2.375 5.463-5.188 5.463zm-3.562-8.976h5.6c.187-2.362-.688-3.675-2.5-3.675-1.85 0-3.013 1.325-3.1 3.675zm15.351 8.963a1.72 1.72 0 01-1.712-1.7c0-.925.775-1.7 1.712-1.7a1.7 1.7 0 011.688 1.7 1.7 1.7 0 01-1.688 1.7zm-.6-4.75c-.387-2.175-.05-3.463 1.463-5.625 1.05-1.513 1.537-2.575 1.537-3.875 0-2.25-1.175-3.613-3.112-3.613-1.475 0-2.475.688-2.475 1.763 0 .4.1.662.375 1.05.262.45.35.712.35 1.075 0 .6-.463 1.025-1.125 1.025-.863 0-1.538-.838-1.538-1.925 0-2.013 1.7-3.75 4.975-3.75 2.988 0 4.963 1.662 4.963 4.137 0 1.513-.588 2.738-2.1 4.313-2.663 2.775-2.8 3.612-2.8 5.425h-.513z" fill="#121212"/></svg>