<svg width="160" height="175" viewBox="0 0 160 175" fill="none" xmlns="http://www.w3.org/2000/svg"><path d="M23.764 68.85c-3.075 0-3.787-.85-4.7-.85-.412 0-.625.213-.725.775h-.425l-.2-6.038.513-.025c1.487 4 3.475 5.25 5.862 5.25 1.988 0 3.375-1.162 3.375-2.987 0-1.925-.85-2.887-3.55-4.212l-1.587-.776c-3.175-1.55-4.4-3.05-4.4-5.362 0-2.675 2.125-4.425 5.35-4.425 2.612 0 3.662.85 4.35.85.362 0 .537-.2.662-.775h.463l.525 6.013-.525.075c-1.763-3.763-3.263-5.276-5.625-5.276-1.763 0-2.925.963-2.925 2.675 0 1.9 1.025 2.725 3.387 3.9l1.65.838c3.125 1.55 4.525 2.9 4.525 5.45 0 3-2.212 4.9-6 4.9zm12.063.013c-1.825 0-2.675-1.038-2.675-3.188v-8.962h-2.137v-.388c1.95-.8 3.062-1.925 3.875-4.6h.55V55.7h3.8v1.012h-3.8v8.626c0 1.312.4 1.787 1.262 1.787.713 0 1.563-.25 2.438-1.787l.4.262c-.85 2.263-1.938 3.263-3.713 3.263zm14.096-.088c-1.225 0-1.725-.675-1.775-1.888l-2.125 1.288c-.725.463-1.438.688-2.325.688-2.025 0-3.213-1.475-3.213-3.288 0-2.038 1.525-3.475 7.65-4.963v-1.2c0-1.85-.4-3.162-2.112-3.162-1.238 0-2.163.55-2.7 2.175-.425 1.238-.913 1.538-1.613 1.538-.575 0-.987-.376-.987-1.1 0-1.438 1.75-3.526 5.3-3.526 3.237 0 4.375 1.475 4.375 4.5v6.613c0 .45.187.65.612.65.463 0 .838-.313 1.338-1.075l.387.175c-.462 1.787-1.437 2.575-2.812 2.575zm-6.975-3.7c0 1.313.562 2.188 1.825 2.188.825 0 1.512-.238 2.575-.838l.787-.45V61.5c-4.4 1.225-5.187 2.212-5.187 3.575zm9.578 3.063c1.738-.326 1.838-.713 1.838-2.138v-7.087c0-1.413-.3-1.788-1.838-1.563v-.488c1.25-.387 2.513-.887 3.613-1.55h.212c.15.888.225 1.7.25 2.726.788-2.175 2.15-2.7 3.313-2.7 1.225 0 1.9.575 1.9 1.412 0 .725-.525 1.263-1.313 1.263-.787 0-1.15-.575-2.012-.575-1.15 0-1.85 1.087-1.85 3.825V66c0 1.425.15 1.813 2.362 2.138v.362h-6.475v-.362zm14.913.724c-1.825 0-2.675-1.037-2.675-3.187v-8.962h-2.137v-.388c1.95-.8 3.062-1.925 3.875-4.6h.55V55.7h3.8v1.012h-3.8v8.626c0 1.312.4 1.787 1.262 1.787.713 0 1.563-.25 2.438-1.787l.4.262c-.85 2.263-1.938 3.263-3.713 3.263zm13.124 0c-1.825 0-2.675-1.037-2.675-3.187v-8.962h-2.137v-.388c1.95-.8 3.062-1.925 3.875-4.6h.55V55.7h3.8v1.012h-3.8v8.626c0 1.312.4 1.787 1.262 1.787.713 0 1.563-.25 2.438-1.787l.4.262c-.85 2.263-1.938 3.263-3.713 3.263zm14.096-.087c-1.225 0-1.725-.675-1.775-1.888l-2.125 1.288c-.725.463-1.437.688-2.325.688-2.025 0-3.212-1.475-3.212-3.288 0-2.038 1.525-3.475 7.65-4.963v-1.2c0-1.85-.4-3.162-2.113-3.162-1.237 0-2.162.55-2.7 2.175-.425 1.238-.912 1.538-1.612 1.538-.575 0-.988-.376-.988-1.1 0-1.438 1.75-3.526 5.3-3.526 3.238 0 4.375 1.475 4.375 4.5v6.613c0 .45.188.65.613.65.462 0 .837-.313 1.337-1.075l.388.175c-.463 1.787-1.438 2.575-2.813 2.575zm-6.975-3.7c0 1.313.563 2.188 1.825 2.188.825 0 1.513-.238 2.575-.838l.788-.45V61.5c-4.4 1.225-5.188 2.212-5.188 3.575zm9.483 3.063c1.663-.35 1.838-.726 1.838-2.163V53.313c0-1.25-.175-1.763-2.288-1.476v-.512c1.763-.45 3.138-1 4.413-1.663h.162v11.9l3.25-3.187c.825-.8 1.113-1.15 1.113-1.563 0-.437-.25-.612-1.325-.75V55.7h6.037v.362c-1.387.2-2.2.55-3.612 1.838l-3.138 2.888 4.263 5.162c1.325 1.612 2.075 2.05 3.162 2.188v.362h-6.187v-.362c1.137-.126 1.275-.65.45-1.663l-4.013-4.887v4.387c0 1.438.163 1.813 1.838 2.163v.362h-5.963v-.362zm13.37 0c1.775-.326 1.875-.713 1.875-2.138v-7.1c0-1.413-.3-1.788-1.825-1.563v-.512c1.25-.363 2.8-.863 3.9-1.525h.2V66c0 1.425.088 1.813 1.888 2.138v.362h-6.038v-.362zm2.938-15.026c-.938 0-1.675-.7-1.675-1.6 0-.862.737-1.562 1.675-1.562.925 0 1.65.7 1.65 1.563 0 .912-.75 1.6-1.65 1.6zm3.357 15.05c1.75-.337 1.837-.725 1.837-2.137v-7.1c0-1.412-.3-1.8-1.837-1.575v-.5c1.262-.375 2.525-.875 3.637-1.538h.2c.113.763.2 1.513.225 2.376 1.275-1.563 2.713-2.35 4.413-2.35 2.387 0 3.537 1.587 3.537 4.175v6.512c0 1.412.125 1.8 1.85 2.137v.338h-6.037v-.338c1.85-.337 1.912-.725 1.912-2.137v-6.338c0-1.825-.65-2.674-2.225-2.674-1.187 0-2.425.537-3.4 1.612v7.4c0 1.412.138 1.8 1.95 2.137v.338h-6.062v-.338zm19.039 6.138c-3.138 0-5.288-1.138-5.288-2.712 0-.7.363-1.263 1.063-1.713l1.987-1.425c-1.1-.213-1.837-.775-1.837-1.688 0-.7.4-1.3 1.55-2.087l.912-.65c-1.825-.638-2.862-2.088-2.862-4.113 0-2.737 2.137-4.575 5.35-4.575 1.187 0 2.175.288 2.962.738a62.849 62.849 0 003.988-.625c.05.512.025 1.05-.188 1.5l-2.75.112c.675.6 1.1 1.613 1.1 2.788 0 2.688-2.175 4.525-5.35 4.525a7.82 7.82 0 01-1.487-.138c-.688.5-1.075 1.013-1.075 1.476 0 .712.8.912 1.612.962l4.225.2c2.5.125 3.575 1.037 3.575 2.525 0 2.8-3.425 4.9-7.487 4.9zm.762-10.775c2.063 0 2.738-1.563 2.738-3.313 0-2.287-.938-4-2.763-4-1.862 0-2.712 1.238-2.712 3.363 0 2.325.925 3.95 2.737 3.95zm-3.975 7.5c0 1.162 1.313 1.962 4.163 1.962 3.037 0 4.937-1.15 4.937-2.662 0-.925-.587-1.388-2.775-1.513l-4.362-.262-.488.388c-.725.562-1.475 1.287-1.475 2.087zm-117.576 30.5c1.738-.325 1.825-.7 1.825-2.113v-12.5c0-1.412-.3-1.787-1.825-1.562v-.512c1.25-.363 2.5-.863 3.6-1.525h.225c.113.8.2 1.55.225 2.424 1.013-1.562 2.55-2.374 4.475-2.374 2.988 0 4.863 2.275 4.863 6.124 0 3.876-2.088 7.35-6.5 7.35-1.013 0-1.95-.124-2.788-.425v3c0 1.413.125 1.788 1.95 2.113l-.012.375h-6.038v-.375zm4.1-6.888c.7.913 1.6 1.313 2.85 1.313 2.638 0 4.088-2.188 4.088-5.825 0-3.35-1.413-5-3.625-5-1.138 0-2.313.35-3.338 1.213l.025.262v8.038zm20.46 2.138c-1.226 0-1.726-.675-1.776-1.888l-2.125 1.288c-.725.463-1.437.688-2.325.688-2.025 0-3.212-1.475-3.212-3.288 0-2.038 1.525-3.475 7.65-4.963v-1.2c0-1.85-.4-3.162-2.113-3.162-1.237 0-2.162.55-2.7 2.175-.425 1.237-.912 1.538-1.612 1.538-.575 0-.988-.375-.988-1.1 0-1.438 1.75-3.525 5.3-3.525 3.238 0 4.375 1.475 4.375 4.5v6.612c0 .45.188.65.613.65.462 0 .837-.313 1.337-1.075l.388.175c-.463 1.787-1.438 2.575-2.813 2.575zm-6.976-3.7c0 1.313.563 2.188 1.825 2.188.825 0 1.513-.238 2.575-.838l.788-.45V89.5c-4.4 1.225-5.188 2.213-5.188 3.575zm10.017 9.175c-1.125 0-1.787-.462-1.787-1.312 0-.775.55-1.238 1.437-1.238.7 0 1.138.225 1.738.225 1.275 0 2.037-.938 3.137-3.438l-4.375-10.4c-.587-1.374-.975-1.837-2.225-2.075V83.7h6.313v.313c-1.775.174-1.988 1-1.4 2.524l2.887 7.225 2.913-7.387c.675-1.688-.113-2.225-2.025-2.375v-.3h5.612v.313c-1.125.2-1.45.575-2.15 2.187l-4.462 10.275c-.9 2.063-2.55 5.775-5.613 5.775zm11.946-6.112c1.738-.326 1.838-.713 1.838-2.138v-7.088c0-1.412-.3-1.787-1.838-1.562v-.512c1.25-.363 2.513-.863 3.613-1.525h.212c.125.787.213 1.537.238 2.412 1.275-1.487 2.587-2.387 4.425-2.387 1.787 0 2.9.875 3.362 2.362 1.263-1.45 2.6-2.362 4.413-2.362 2.3 0 3.587 1.462 3.587 4.075v6.662c0 1.412.125 1.787 1.85 2.112v.313h-6.05v-.313c1.85-.325 1.925-.7 1.925-2.112V87.7c0-1.85-.687-2.65-2.262-2.65-1.25 0-2.388.475-3.3 1.4.037.287.062.625.062.962v6.663c0 1.412.138 1.787 1.838 2.112v.313h-6.025v-.313c1.825-.325 1.9-.7 1.9-2.112V87.7c0-1.85-.663-2.65-2.263-2.65-1.3 0-2.45.55-3.412 1.55V94c0 1.425.125 1.813 1.95 2.138l-.013.362h-6.05v-.362zm27.814.724c-3.188 0-5.863-2.312-5.863-6.825 0-3.987 2.113-6.7 5.763-6.7 3.087 0 4.887 1.925 4.875 5.413h-8.413c-.062 3.362 1.263 6.162 4.388 6.162 2.1 0 3.387-1.25 4.012-3.587l.425.075c-.325 3.675-2.375 5.462-5.187 5.462zm-3.563-8.974h5.6c.188-2.363-.687-3.675-2.5-3.675-1.85 0-3.012 1.325-3.1 3.675zm9.552 8.274c1.75-.337 1.837-.725 1.837-2.137v-7.1c0-1.412-.3-1.8-1.837-1.575v-.5c1.263-.375 2.525-.875 3.638-1.537h.2c.112.762.2 1.512.225 2.374 1.274-1.562 2.712-2.35 4.412-2.35 2.388 0 3.538 1.588 3.538 4.175v6.513c0 1.412.125 1.8 1.85 2.137v.338h-6.038v-.338c1.85-.337 1.912-.725 1.912-2.137v-6.338c0-1.825-.65-2.674-2.224-2.674-1.188 0-2.425.537-3.4 1.612v7.4c0 1.412.137 1.8 1.95 2.137v.338h-6.063v-.338zm18.331.7c-1.825 0-2.675-1.037-2.675-3.187v-8.962h-2.137v-.388c1.95-.8 3.062-1.925 3.875-4.6h.55V83.7h3.8v1.013h-3.8v8.625c0 1.312.4 1.787 1.262 1.787.713 0 1.563-.25 2.438-1.787l.4.262c-.85 2.263-1.938 3.263-3.713 3.263zm9.346 0c-2.225 0-2.675-.637-3.463-.637-.312 0-.45.175-.55.625h-.35l-.225-4.688.45-.05c1.138 2.75 2.763 3.925 4.488 3.925 1.212 0 1.987-.662 1.987-1.825 0-1.362-.625-2.062-2.187-2.837l-1.45-.713c-1.988-.987-3.125-2.137-3.125-3.887 0-2.038 1.625-3.438 4.175-3.438 1.675 0 2.425.525 3.05.525.287 0 .4-.112.55-.524h.362l.438 4.55-.475.087c-.838-2.212-2.275-3.787-4.138-3.787-1.212 0-1.9.687-1.9 1.75 0 1.087.375 1.75 2.138 2.637l1.325.662c2.55 1.276 3.425 2.263 3.425 3.963 0 1.912-1.438 3.662-4.525 3.662zm9.812-.724c1.775-.326 1.875-.713 1.875-2.138v-7.1c0-1.413-.3-1.788-1.825-1.563v-.512c1.25-.362 2.8-.862 3.9-1.525h.2V94c0 1.425.088 1.813 1.888 2.138v.362h-6.038v-.362zm2.938-15.026c-.938 0-1.675-.7-1.675-1.6 0-.862.737-1.562 1.675-1.562.925 0 1.65.7 1.65 1.563 0 .912-.75 1.6-1.65 1.6zm3.357 15.05c1.75-.337 1.838-.725 1.838-2.137v-7.1c0-1.412-.3-1.8-1.838-1.575v-.5c1.263-.375 2.525-.875 3.638-1.537h.2c.112.762.2 1.512.225 2.374 1.275-1.562 2.712-2.35 4.412-2.35 2.388 0 3.538 1.588 3.538 4.175v6.513c0 1.412.125 1.8 1.85 2.137v.338h-6.038v-.338c1.85-.337 1.913-.725 1.913-2.137v-6.338c0-1.825-.65-2.674-2.225-2.674-1.188 0-2.425.537-3.4 1.612v7.4c0 1.412.137 1.8 1.95 2.137v.338h-6.063v-.338zm-98.211 27.975c1.737-.325 1.837-.712 1.837-2.137v-7.088c0-1.412-.3-1.787-1.837-1.562v-.513c1.25-.362 2.512-.862 3.612-1.525h.213c.125.788.212 1.538.237 2.413 1.275-1.488 2.588-2.388 4.425-2.388 1.788 0 2.9.875 3.363 2.363 1.262-1.45 2.6-2.363 4.412-2.363 2.3 0 3.588 1.463 3.588 4.075v6.663c0 1.412.125 1.787 1.85 2.112v.313h-6.05v-.313c1.85-.325 1.925-.7 1.925-2.112V115.7c0-1.85-.688-2.65-2.263-2.65-1.25 0-2.387.475-3.3 1.4.038.287.063.625.063.962v6.663c0 1.412.137 1.787 1.837 2.112v.313h-6.025v-.313c1.825-.325 1.9-.7 1.9-2.112V115.7c0-1.85-.662-2.65-2.262-2.65-1.3 0-2.45.55-3.413 1.55v7.4c0 1.425.125 1.812 1.95 2.137l-.012.363h-6.05v-.363zm21.55 0c1.776-.325 1.876-.712 1.876-2.137v-7.1c0-1.413-.3-1.788-1.825-1.563v-.512c1.25-.363 2.8-.863 3.9-1.525h.2V122c0 1.425.087 1.812 1.887 2.137v.363h-6.037v-.363zm2.938-15.025c-.937 0-1.675-.7-1.675-1.6 0-.862.738-1.562 1.675-1.562.925 0 1.65.7 1.65 1.562 0 .913-.75 1.6-1.65 1.6zm3.357 15.05c1.75-.337 1.838-.725 1.838-2.137v-7.1c0-1.413-.3-1.8-1.838-1.575v-.5c1.263-.375 2.526-.875 3.638-1.538h.2c.112.763.2 1.513.225 2.375 1.275-1.562 2.713-2.35 4.413-2.35 2.387 0 3.537 1.588 3.537 4.175v6.513c0 1.412.125 1.8 1.85 2.137v.338h-6.037v-.338c1.85-.337 1.912-.725 1.912-2.137v-6.338c0-1.825-.65-2.675-2.225-2.675-1.188 0-2.425.538-3.4 1.613v7.4c0 1.412.138 1.8 1.95 2.137v.338H61.85v-.338zm18.408.701c-2.325 0-3.5-1.576-3.5-4.063v-6.3c0-1.425-.2-1.813-1.8-1.913v-.425c1.35-.137 2.738-.337 3.85-.625h.225v9.013c0 1.575.713 2.687 2.263 2.687 1.225 0 2.45-.662 3.287-1.612V114.5c0-1.475-.237-1.825-2.162-1.888v-.425c1.437-.125 3-.337 4.225-.65h.212v10.113c0 1.288.288 1.425 2.038 1.425v.512c-1.475.3-2.763.725-3.875 1.325h-.038c-.187-.9-.325-1.737-.35-2.462-1.162 1.487-2.487 2.413-4.375 2.413zm13.383 0c-1.826 0-2.675-1.038-2.675-3.188v-8.963h-2.138v-.387c1.95-.8 3.063-1.925 3.875-4.6h.55v3.975h3.8v1.012h-3.8v8.625c0 1.313.4 1.788 1.263 1.788.712 0 1.562-.25 2.437-1.788l.4.263c-.85 2.262-1.938 3.263-3.712 3.263zm10.245 0c-3.187 0-5.862-2.313-5.862-6.826 0-3.987 2.112-6.7 5.762-6.7 3.088 0 4.888 1.925 4.875 5.413h-8.412c-.063 3.362 1.262 6.162 4.387 6.162 2.1 0 3.388-1.25 4.013-3.587l.425.075c-.325 3.675-2.375 5.463-5.188 5.463zm-3.562-8.976h5.6c.187-2.362-.688-3.675-2.5-3.675-1.85 0-3.013 1.325-3.1 3.675zm14.852 8.976c-2.225 0-2.675-.638-3.463-.638-.312 0-.45.175-.55.625h-.35l-.225-4.688.45-.05c1.138 2.75 2.763 3.925 4.488 3.925 1.212 0 1.987-.662 1.987-1.825 0-1.362-.625-2.062-2.187-2.837l-1.45-.713c-1.988-.987-3.125-2.137-3.125-3.887 0-2.038 1.625-3.438 4.175-3.438 1.675 0 2.425.525 3.05.525.287 0 .4-.112.55-.525h.362l.438 4.55-.475.088c-.838-2.213-2.275-3.788-4.138-3.788-1.212 0-1.9.688-1.9 1.75 0 1.088.375 1.75 2.138 2.638l1.325.662c2.55 1.275 3.425 2.263 3.425 3.963 0 1.912-1.438 3.663-4.525 3.663zm8.184-.013a1.72 1.72 0 01-1.712-1.7c0-.925.775-1.7 1.712-1.7a1.7 1.7 0 011.688 1.7 1.7 1.7 0 01-1.688 1.7z" fill="#121212"/></svg>