<svg width="380" height="81" viewBox="0 0 380 81" fill="none" xmlns="http://www.w3.org/2000/svg">
<path fill-rule="evenodd" clip-rule="evenodd" d="M78.0638 39.4004C76.8986 43.9721 75.01 48.4312 72.4516 52.6541C70.8177 55.3509 68.9779 57.8336 66.9582 60.0814C69.2637 50.3903 67.7033 38.5184 62.0478 27.3853C61.6502 26.6024 60.7315 26.3431 60.0045 26.8114L42.3923 38.1613C41.7177 38.5961 41.5128 39.5119 41.9341 40.2076L44.5165 44.4694C44.9378 45.1651 45.8261 45.3765 46.5007 44.942L57.9154 37.5855C58.2979 38.7161 58.641 39.8543 58.933 41.0004C60.0315 45.3079 60.4406 49.5115 60.1489 53.4945C59.6065 60.9093 56.6796 66.6866 51.907 69.7623C49.5236 71.2984 46.7544 72.1117 43.7448 72.1997C43.6794 72.1989 43.613 72.2012 43.5476 72.1997C43.4915 72.2008 43.4346 72.1989 43.3785 72.1997C40.3686 72.1121 37.599 71.2984 35.2149 69.7619C30.4426 66.6866 27.5154 60.9093 26.973 53.4945C26.6816 49.5115 27.0908 45.3079 28.1888 41.0004C29.3545 36.4287 31.2424 31.9696 33.8015 27.7467C36.3599 23.5237 39.4182 19.8186 42.8919 16.7342C46.1644 13.828 49.6484 11.6061 53.2473 10.1302C59.9473 7.38241 66.2652 7.56328 71.0378 10.6389C75.8101 13.7142 78.7373 19.4915 79.2797 26.9063C79.5714 30.8893 79.1623 35.0929 78.0638 39.4004M14.6703 52.6541C12.1115 48.4312 10.2233 43.9721 9.05766 39.4004C7.95957 35.0929 7.55047 30.8893 7.84179 26.9063C8.38455 19.4915 11.3114 13.7142 16.0841 10.6389C20.8564 7.56328 27.1746 7.38241 33.8742 10.1302C34.883 10.5437 35.881 11.0247 36.8694 11.5559C33.2982 14.8931 30.0173 18.9036 27.2263 23.51C19.8354 35.7078 17.5876 49.2567 20.1644 60.0826C18.1447 57.8348 16.3045 55.3513 14.6703 52.6541M75.1458 3.85813C66.0912 -1.97709 54.1722 -0.590258 43.558 6.3028C32.9456 -0.587973 21.0295 -1.97595 11.976 3.85851C-2.32791 13.0763 -4.06513 36.8201 8.09578 56.8911C17.0629 71.6901 31.0814 80.3592 43.5617 80.1977C56.0412 80.3584 70.0593 71.6898 79.026 56.8911C91.187 36.8201 89.4501 13.0763 75.1458 3.85813" fill="#111111"/>
<path fill-rule="evenodd" clip-rule="evenodd" d="M144.569 58.5408C141.121 62.8611 135.126 65.5787 128.346 65.5787C115.612 65.5787 105.658 56.0793 105.658 42.5526C105.658 28.4944 116.402 18.8047 129.976 18.8047C139.994 18.8047 148.007 23.0788 151.561 31.6735C151.672 31.9537 151.726 32.1779 151.726 32.3904C151.726 32.7989 151.456 33.1059 150.592 33.4045L144.248 35.8276C143.76 35.9908 143.346 35.9807 143.047 35.8453C142.721 35.6971 142.523 35.3992 142.289 34.9839C140.032 30.6929 135.965 27.7756 129.731 27.7756C121.643 27.7756 115.854 34.0413 115.854 42.1614C115.854 50.0325 120.79 56.5047 129.961 56.5047C134.788 56.5047 138.638 54.2404 140.433 51.7703H134.705C133.865 51.7703 133.219 51.1293 133.219 50.2958V45.4485C133.219 44.6153 133.865 43.974 134.705 43.974H151.486C152.326 43.974 152.972 44.5514 152.972 45.3842V63.2252C152.972 64.0583 152.326 64.6996 151.486 64.6996H146.056C145.216 64.6996 144.569 64.0583 144.569 63.2252V58.5408ZM378.579 33.2488H372.015C370.973 33.2488 370.451 33.9597 370.256 34.7349L364.196 57.2084L357.708 34.7349C357.334 33.5373 356.744 33.2488 355.898 33.2488H348.978C347.349 33.2488 347.049 34.3475 347.375 35.4458L356.156 63.3576C356.416 64.1328 356.938 64.7139 357.915 64.7139H361.891L361.047 67.4846C360.215 69.8787 358.666 70.5226 356.643 70.5226C354.909 70.5226 353.771 69.8445 352.545 69.0572C352.073 68.7548 351.707 68.6119 351.249 68.6119C350.659 68.6119 350.252 68.8751 349.701 69.6816L347.752 72.5775C347.372 73.1778 347.166 73.5081 347.166 74.1486C347.166 75.177 348.202 75.8206 349.443 76.5243C351.579 77.7347 354.303 78.3396 357.294 78.3396C363.873 78.3396 368.108 74.7865 369.997 68.8436L379.817 35.4458C380.272 34.1534 379.882 33.2488 378.579 33.2488V33.2488ZM328.497 57.0252C332.838 57.0252 336.094 53.6708 336.094 49.0135C336.094 44.3565 332.838 41.0017 328.497 41.0017C324.156 41.0017 320.9 44.3565 320.9 49.0135C320.9 53.6708 324.156 57.0252 328.497 57.0252V57.0252ZM326.541 32.3442C330.84 32.3442 334.293 34.1538 335.791 36.4795V20.8434C335.791 20.0678 336.443 19.4867 337.224 19.4867H343.804C344.585 19.4867 345.172 20.0678 345.172 20.8434V63.3576C345.172 64.1328 344.585 64.714 343.804 64.714H337.224C336.507 64.714 335.856 64.1328 335.856 63.3576V61.3543C334.097 63.8097 330.905 65.6182 326.671 65.6182C318.463 65.6182 310.841 59.093 310.841 48.9493C310.841 38.7401 318.398 32.3442 326.541 32.3442V32.3442ZM291.562 57.0252C295.903 57.0252 299.159 53.6708 299.159 49.0135C299.159 44.3565 295.903 41.0017 291.562 41.0017C287.221 41.0017 283.965 44.3565 283.965 49.0135C283.965 53.6708 287.221 57.0252 291.562 57.0252V57.0252ZM289.606 32.3442C293.905 32.3442 297.358 34.1538 298.856 36.4795V20.8434C298.856 20.0678 299.508 19.4867 300.289 19.4867H306.869C307.65 19.4867 308.237 20.0678 308.237 20.8434V63.3576C308.237 64.1329 307.65 64.714 306.869 64.714H300.289C299.573 64.714 298.921 64.1329 298.921 63.3576V61.3543C297.162 63.8097 293.97 65.6182 289.736 65.6182C281.528 65.6182 273.906 59.093 273.906 48.9493C273.906 38.7401 281.463 32.3442 289.606 32.3442V32.3442ZM254.628 56.9422C258.989 56.9422 262.259 53.6224 262.259 49.0135C262.259 44.4047 258.989 41.0849 254.628 41.0849C250.269 41.0849 246.998 44.4047 246.998 49.0135C246.998 53.6224 250.269 56.9422 254.628 56.9422V56.9422ZM252.867 32.3441C257.102 32.3441 260.489 34.1533 261.987 36.6084V34.6701C261.987 33.8949 262.704 33.2483 263.355 33.2483H269.935C270.716 33.2483 271.303 33.8949 271.303 34.6701V63.3571C271.303 64.1323 270.716 64.7139 269.935 64.7139H263.355C262.639 64.7139 261.987 64.1323 261.987 63.3571V61.3538C260.489 63.8092 257.036 65.6177 252.802 65.6177C244.595 65.6177 236.973 59.0925 236.973 48.9487C236.973 38.7403 244.66 32.3441 252.867 32.3441V32.3441ZM224.867 42.0353C224.867 34.1533 219.526 28.4025 211.774 28.4025H202.198V55.7974H211.774C219.526 55.7974 224.867 49.7886 224.867 42.0353V42.0353ZM235.096 42.0354C235.096 55.4745 225.364 64.714 211.359 64.714H193.86C193.013 64.714 192.427 64.0674 192.427 63.2275V20.9085C192.427 20.1325 193.013 19.4867 193.86 19.4867H211.359C225.364 19.4867 235.096 28.5324 235.096 42.0354V42.0354ZM172.65 56.8782C177.099 56.8782 180.436 53.3609 180.436 49.0131C180.436 44.665 177.099 41.0845 172.65 41.0845C168.267 41.0845 164.93 44.665 164.93 49.0131C164.93 53.3609 168.267 56.8782 172.65 56.8782V56.8782ZM172.65 32.3441C182.227 32.3441 189.913 39.7096 189.913 49.0778C189.913 58.3819 182.227 65.6177 172.65 65.6177C163.14 65.6177 155.453 58.3819 155.453 49.0778C155.453 39.7096 163.14 32.3441 172.65 32.3441V32.3441Z" fill="#111111"/>
</svg>
