<svg width="106" height="30" viewBox="0 0 106 30" fill="none" xmlns="http://www.w3.org/2000/svg">
<rect width="106" height="30" rx="4.8" fill="#111111"/>
<path d="M94.5688 18.6914V11.0967H95.627V18.6914H94.5688Z" fill="white"/>
<path d="M88.3438 17.1606C88.3438 16.1455 89.1064 15.5332 90.5566 15.5332H91.98C91.98 14.5825 91.5181 14.1528 90.75 14.1528C90.1592 14.1528 89.6865 14.4375 89.3696 14.9585L88.5532 14.373C89.1226 13.5835 89.8315 13.2236 90.793 13.2236C92.1895 13.2236 92.9897 14.04 92.9897 15.458V18.6914H92.1089L92.0391 17.7891C91.6201 18.4443 91.0024 18.7881 90.1968 18.7881C89.0474 18.7881 88.3438 18.1758 88.3438 17.1606ZM90.4116 17.8857C91.3408 17.8857 91.98 17.1392 91.98 16.4409V16.3066H90.5996C89.7993 16.3066 89.4341 16.6289 89.4341 17.1123C89.4341 17.5796 89.7725 17.8857 90.4116 17.8857Z" fill="white"/>
<path d="M82.5913 13.3203H83.6494V14.0669C84.02 13.5298 84.6162 13.2236 85.2769 13.2236C86.4424 13.2236 87.1943 13.9917 87.1943 15.3828V18.6914H86.1309V15.5171C86.1309 14.6147 85.6743 14.1582 84.9707 14.1582C84.1543 14.1582 83.6494 14.647 83.6494 15.6138V18.6914H82.5913V13.3203Z" fill="white"/>
<path d="M81.356 16.0059C81.356 17.5635 80.2764 18.7881 78.6704 18.7881C77.0645 18.7881 75.9849 17.5635 75.9849 16.0059C75.9849 14.4482 77.0645 13.2236 78.6704 13.2236C80.2764 13.2236 81.356 14.4482 81.356 16.0059ZM80.2495 16.0059C80.2495 14.9854 79.7339 14.1582 78.6704 14.1582C77.6123 14.1582 77.0967 14.9854 77.0967 16.0059C77.0967 17.0264 77.6069 17.8535 78.6704 17.8535C79.7339 17.8535 80.2495 17.0264 80.2495 16.0059Z" fill="white"/>
<path d="M74.2285 12.2837C73.874 12.2837 73.5947 12.0044 73.5947 11.6553C73.5947 11.3115 73.874 11.0215 74.2285 11.0215C74.5776 11.0215 74.8569 11.3115 74.8569 11.6553C74.8569 12.0044 74.5776 12.2837 74.2285 12.2837ZM73.6968 13.3203H74.7549V18.6914H73.6968V13.3203Z" fill="white"/>
<path d="M70.3989 18.7881C69.2441 18.7881 68.519 18.3208 68.1592 17.4668L68.9917 16.9834C69.2871 17.6118 69.7651 17.9019 70.3774 17.9019C71.0381 17.9019 71.3765 17.6226 71.3765 17.2251C71.3765 15.9844 68.4062 16.8276 68.4062 14.7383C68.4062 13.8467 69.1313 13.2236 70.2969 13.2236C71.2583 13.2236 71.9404 13.6211 72.3271 14.3301L71.4839 14.792C71.2798 14.3945 70.9092 14.0776 70.2969 14.0776C69.7329 14.0776 69.4268 14.3247 69.4268 14.6685C69.4268 15.7856 72.4238 15.0605 72.4238 17.1016C72.4238 18.2241 71.5054 18.7881 70.3989 18.7881Z" fill="white"/>
<path d="M65.3931 18.7881C64.2383 18.7881 63.5132 18.3208 63.1533 17.4668L63.9858 16.9834C64.2812 17.6118 64.7593 17.9019 65.3716 17.9019C66.0322 17.9019 66.3706 17.6226 66.3706 17.2251C66.3706 15.9844 63.4004 16.8276 63.4004 14.7383C63.4004 13.8467 64.1255 13.2236 65.291 13.2236C66.2524 13.2236 66.9346 13.6211 67.3213 14.3301L66.478 14.792C66.2739 14.3945 65.9033 14.0776 65.291 14.0776C64.7271 14.0776 64.4209 14.3247 64.4209 14.6685C64.4209 15.7856 67.418 15.0605 67.418 17.1016C67.418 18.2241 66.4995 18.7881 65.3931 18.7881Z" fill="white"/>
<path d="M60.1187 18.7881C58.4805 18.7881 57.4868 17.6924 57.4868 16.0273C57.4868 14.3569 58.5127 13.2236 60.0327 13.2236C61.7461 13.2236 62.439 14.5664 62.439 15.8286C62.439 16.0166 62.4282 16.1724 62.396 16.3228H58.5986C58.7061 17.3647 59.2915 17.8374 60.1401 17.8374C60.6987 17.8374 61.123 17.6602 61.5366 17.209L62.2725 17.8535C61.6763 18.4927 61.0049 18.7881 60.1187 18.7881ZM60.0166 14.1206C59.2861 14.1206 58.7329 14.5879 58.6094 15.5439H61.3916C61.354 14.6685 60.8384 14.1206 60.0166 14.1206Z" fill="white"/>
<path d="M54.5864 14.1958H53.5444V13.3203H54.5864V12.7402C54.5864 11.5801 55.3008 11 56.1709 11C56.4717 11 56.7349 11.0483 56.9927 11.1504V12.085C56.7993 11.9937 56.5737 11.9346 56.3267 11.9346C55.9775 11.9346 55.6499 12.1494 55.6499 12.6758V13.3203H56.9927V14.1958H55.6499V18.6914H54.5864V14.1958Z" fill="white"/>
<path d="M52.9751 16.0059C52.9751 17.5635 51.8955 18.7881 50.2896 18.7881C48.6836 18.7881 47.604 17.5635 47.604 16.0059C47.604 14.4482 48.6836 13.2236 50.2896 13.2236C51.8955 13.2236 52.9751 14.4482 52.9751 16.0059ZM51.8687 16.0059C51.8687 14.9854 51.353 14.1582 50.2896 14.1582C49.2314 14.1582 48.7158 14.9854 48.7158 16.0059C48.7158 17.0264 49.2261 17.8535 50.2896 17.8535C51.353 17.8535 51.8687 17.0264 51.8687 16.0059Z" fill="white"/>
<path d="M43.855 13.3203H44.8916V14.3623C45.1978 13.6157 45.7563 13.2236 46.4062 13.2236C46.6533 13.2236 46.8306 13.2559 46.9541 13.2881V14.3516C46.8198 14.2979 46.6641 14.2603 46.4224 14.2603C45.5684 14.2603 44.8809 15.0015 44.8809 16.2314V18.6914H43.855V13.3203Z" fill="white"/>
<path d="M37.8018 11.0967H40.1006C41.6421 11.0967 42.7217 11.9131 42.7217 13.3096C42.7217 14.7329 41.6367 15.5171 40.0522 15.5171H38.9082V18.6914H37.8018V11.0967ZM40.063 14.502C41.0942 14.502 41.583 14.0938 41.583 13.3257C41.583 12.563 41.0781 12.1118 40.063 12.1118H38.9082V14.502H40.063Z" fill="white"/>
<path d="M33.7197 13.3203L31.6841 15.4204L33.8862 18.6914H32.6294L30.9697 16.0972L30.0029 17.0962V18.6914H28.9448V11.0967H30.0029V15.8179L32.334 13.3203H33.7197Z" fill="white"/>
<path d="M27.7095 16.0059C27.7095 17.5635 26.6299 18.7881 25.0239 18.7881C23.418 18.7881 22.3384 17.5635 22.3384 16.0059C22.3384 14.4482 23.418 13.2236 25.0239 13.2236C26.6299 13.2236 27.7095 14.4482 27.7095 16.0059ZM26.603 16.0059C26.603 14.9854 26.0874 14.1582 25.0239 14.1582C23.9658 14.1582 23.4502 14.9854 23.4502 16.0059C23.4502 17.0264 23.9604 17.8535 25.0239 17.8535C26.0874 17.8535 26.603 17.0264 26.603 16.0059Z" fill="white"/>
<path d="M21.5542 16.0059C21.5542 17.5635 20.4746 18.7881 18.8687 18.7881C17.2627 18.7881 16.1831 17.5635 16.1831 16.0059C16.1831 14.4482 17.2627 13.2236 18.8687 13.2236C20.4746 13.2236 21.5542 14.4482 21.5542 16.0059ZM20.4478 16.0059C20.4478 14.9854 19.9321 14.1582 18.8687 14.1582C17.8105 14.1582 17.2949 14.9854 17.2949 16.0059C17.2949 17.0264 17.8052 17.8535 18.8687 17.8535C19.9321 17.8535 20.4478 17.0264 20.4478 16.0059Z" fill="white"/>
<path d="M11 11.0967H12.1064V17.644H15.4419V18.6914H11V11.0967Z" fill="white"/>
</svg>
